<?xml version="1.0" encoding="UTF-8" standalone="no"?>
<svg width="48px" height="48px" viewBox="0 0 48 48" version="1.1" xmlns="http://www.w3.org/2000/svg" xmlns:xlink="http://www.w3.org/1999/xlink">
    <!-- Generator: Sketch 3.8.3 (29802) - http://www.bohemiancoding.com/sketch -->
    <title>Slice 1</title>
    <desc>Created with Sketch.</desc>
    <defs></defs>
    <g id="Page-1" stroke="none" stroke-width="1" fill="none" fill-rule="evenodd">
        <g id="Instagram">
            <circle id="Oval-1-Copy-20" fill="#3F729B" cx="24" cy="24" r="24"></circle>
            <g id="Group-6" transform="translate(12.342857, 11.657143)" fill="#FFFFFF">
                <path d="M21.7498667,4.50465164 C21.7498667,5.33404143 21.0784,6.00620219 20.2498667,6.00620219 L18.7498667,6.00620219 C17.9216,6.00620219 17.2498667,5.33404143 17.2498667,4.50465164 L17.2498667,3.7537429 C17.2498667,2.92462005 17.9216,2.25245929 18.7498667,2.25245929 L20.2498667,2.25245929 C21.0784,2.25245929 21.7498667,2.92462005 21.7498667,3.7537429 L21.7498667,4.50465164 Z M19.4997333,0 L5.99973333,0 L5.99973333,7.50775274 L7.86026667,7.50775274 C8.9504,6.50324879 10.4013333,5.88474344 11.9997333,5.88474344 C13.5984,5.88474344 15.0493333,6.50324879 16.1397333,7.50775274 L22.5,7.50775274 L22.5,19.5201571 C22.5,21.1789367 21.1568,22.5232582 19.4997333,22.5232582 L4.49973333,22.5232582 C2.84293333,22.5232582 1.5,21.1789367 1.5,19.5201571 L1.5,8.25866148 L1.5,7.50775274 L1.5,1.15372471 C0.581333333,1.97857647 0,3.17207558 0,4.50465164 L0,19.5201571 C0,22.0080595 2.01466667,24.0248088 4.49973333,24.0248088 L19.4997333,24.0248088 C21.9850667,24.0248088 24,22.0080595 24,19.5201571 L24,7.50775274 L24,5.25556039 L24,4.50465164 C24,2.01674922 21.9850667,0 19.4997333,0 L19.4997333,0 Z" id="Fill-33"></path>
                <path d="M4.24285714,7.50775274 L4.24285714,0 C3.71619048,0 3.21272381,0.0952984081 2.74285714,0.261603473 L2.74285714,7.50775274 L4.24285714,7.50775274 Z" id="Fill-35"></path>
                <path d="M9.06445714,12.8015603 C9.06445714,11.1174212 10.4284571,9.75201125 12.1108571,9.75201125 C13.7932571,9.75201125 15.1572571,11.1174212 15.1572571,12.8015603 C15.1572571,14.4856994 13.7932571,15.8511094 12.1108571,15.8511094 C10.4284571,15.8511094 9.06445714,14.4856994 9.06445714,12.8015603 M16.6788571,12.8015603 C16.6788571,10.276019 14.6337905,8.22857143 12.1108571,8.22857143 C9.58792381,8.22857143 7.54285714,10.276019 7.54285714,12.8015603 C7.54285714,15.3271016 9.58792381,17.3742822 12.1108571,17.3742822 C14.6337905,17.3742822 16.6788571,15.3271016 16.6788571,12.8015603" id="Fill-37"></path>
            </g>
        </g>
    </g>
</svg>