<?xml version="1.0" encoding="UTF-8" standalone="no"?>
<svg width="48px" height="48px" viewBox="0 0 48 48" version="1.1" xmlns="http://www.w3.org/2000/svg" xmlns:xlink="http://www.w3.org/1999/xlink">
    <!-- Generator: Sketch 3.8.3 (29802) - http://www.bohemiancoding.com/sketch -->
    <title>Slice 1</title>
    <desc>Created with Sketch.</desc>
    <defs></defs>
    <g id="Page-1" stroke="none" stroke-width="1" fill="none" fill-rule="evenodd">
        <g id="Twitter">
            <circle id="Oval-1" fill="#55ACEE" cx="24" cy="24" r="24"></circle>
            <path d="M34.9934629,14.8204343 C34.3160533,15.254339 32.7607314,15.884861 31.9936914,15.884861 L31.9936914,15.8861562 C31.1178514,14.9712 29.8847848,14.4 28.5172724,14.4 C25.8612571,14.4 23.7075352,16.5537219 23.7075352,19.208701 C23.7075352,19.5775848 23.7502781,19.9374019 23.8292876,20.2824533 L23.8285105,20.2824533 C20.2256762,20.187901 16.2853029,18.38208 13.9132038,15.2913829 C12.4547657,17.8158019 13.7168457,20.62336 15.371901,21.646339 C14.8053638,21.6890819 13.7624381,21.581059 13.2715429,21.10208 C13.2386438,22.7776 14.0442819,24.9976381 16.9818819,25.8030171 C16.4161219,26.1073981 15.4146438,26.020099 14.9791848,25.9553371 C15.1320229,27.3697371 17.112701,29.218819 19.2785981,29.218819 C18.5066362,30.1117562 15.6021943,31.7313219 12.3428571,31.2160762 C14.556419,32.5628648 17.1362743,33.3428571 19.8668952,33.3428571 C27.6266667,33.3428571 33.6528914,27.0539581 33.3285638,19.295741 C33.3272686,19.2871924 33.3272686,19.2786438 33.3264914,19.2693181 C33.3272686,19.2493714 33.3285638,19.2294248 33.3285638,19.208701 C33.3285638,19.1846095 33.3264914,19.1618133 33.3257143,19.138499 C34.0321371,18.6553752 34.9799924,17.8007771 35.6571429,16.6759924 C35.2644267,16.8922971 34.0862781,17.3254248 32.9899886,17.4329295 C33.6935619,17.0531657 34.7359695,15.8094781 34.9934629,14.8204343" id="Fill-1" fill="#FFFFFF"></path>
        </g>
    </g>
</svg>