<?xml version="1.0" encoding="UTF-8" standalone="no"?>
<svg
   xmlns:dc="http://purl.org/dc/elements/1.1/"
   xmlns:cc="http://creativecommons.org/ns#"
   xmlns:rdf="http://www.w3.org/1999/02/22-rdf-syntax-ns#"
   xmlns:svg="http://www.w3.org/2000/svg"
   xmlns="http://www.w3.org/2000/svg"
   viewBox="0 0 421.07068 190.36932"
   height="190.36932"
   width="421.07068"
   xml:space="preserve"
   id="svg2"
   version="1.1"><metadata
     id="metadata8"><rdf:RDF><cc:Work
         rdf:about=""><dc:format>image/svg+xml</dc:format><dc:type
           rdf:resource="http://purl.org/dc/dcmitype/StillImage" /></cc:Work></rdf:RDF></metadata><defs
     id="defs6"><clipPath
       id="clipPath18"
       clipPathUnits="userSpaceOnUse"><path
         id="path16"
         d="M 0,142.777 H 315.803 V 0 H 0 Z" /></clipPath></defs><g
     transform="matrix(1.3333333,0,0,-1.3333333,0,190.36933)"
     id="g10"><g
       id="g12"><g
         clip-path="url(#clipPath18)"
         id="g14"><g
           transform="translate(193.6582,83.846)"
           id="g20"><path
             id="path22"
             style="fill:#1c75bc;fill-opacity:1;fill-rule:nonzero;stroke:none"
             d="m 0,0 c -1.314,0 -2.38,1.065 -2.38,2.379 0,1.315 1.066,2.38 2.38,2.38 1.314,0 2.38,-1.065 2.38,-2.38 C 2.38,1.065 1.314,0 0,0 m -14.791,9.078 c 0.743,0 1.432,0.223 2.009,0.603 -0.976,-1.428 -2.616,-2.366 -4.477,-2.366 -2.993,0 -5.42,2.427 -5.42,5.421 0,2.994 2.427,5.421 5.42,5.421 1.861,0 3.501,-0.938 4.477,-2.366 -0.577,0.38 -1.266,0.603 -2.009,0.603 -2.02,0 -3.658,-1.638 -3.658,-3.658 0,-2.02 1.638,-3.658 3.658,-3.658 M 2.044,7.413 c -1.698,9.114 -7.87,18.898 -19.428,22.613 0.906,0.737 1.951,1.229 3.092,1.496 -2.52,2.28 -5.375,2.983 -8.13,2.593 0.694,1.07 1.635,1.899 2.751,2.509 -3.23,1.618 -6.347,1.416 -9.004,0.096 -0.171,9.584 -7.074,19.453 -16.822,19.453 -0.917,0 -1.723,-0.196 -2.307,-0.511 6.408,-3.673 8.177,-10.058 7.302,-16.018 -1.672,1.568 -3.905,2.565 -6.71,2.623 0.766,-1.156 1.219,-2.448 1.279,-3.853 -2.073,2.011 -4.898,3.143 -8.388,2.674 0.852,-0.934 1.472,-2.015 1.784,-3.243 -2.61,1.894 -5.915,2.612 -9.567,1.23 0.913,-0.629 1.67,-1.414 2.237,-2.357 -2.505,0.993 -5.352,1.005 -8.274,-0.492 9.258,-2.74 14.491,-9.008 15.769,-13.178 0.232,-1.859 -0.455,-3.598 -1.314,-4.515 -2.046,10.04 -12.039,15.577 -22.352,15.577 -13.353,0 -18.465,-3.482 -27.72,-3.482 -8.594,0 -21.859,3.482 -29.395,13.133 -1.454,-2.027 -1.61,-6.385 1.19,-10.18 5.95,-8.064 23.666,-14.278 40.488,-12.717 1.098,-4.59 -20.857,-4.191 -32.234,2.895 -0.599,-3.294 0.92,-5.458 2.594,-7.286 3.433,-3.748 15.968,-8.482 31.636,-4.291 0.899,-3.094 -8.981,-6.187 -21.656,-3.393 -0.519,-2.818 2.395,-5.189 4.192,-5.888 5.206,-2.025 13.472,-2.495 20.957,0.998 0.799,-2.096 -2.876,-4.56 -9.134,-5.089 2.291,-3.966 7.46,-5.29 14.224,-5.29 3.605,0 6.82,0.438 9.668,1.202 0.061,-2.566 -4.81,-4.373 -11.993,-4.373 -7.037,0 -15.601,1.586 -16.747,8.285 -8.814,0.088 -16.963,4.22 -15.336,11.194 -4.623,1.019 -11.598,4.714 -13.095,10.475 -2.299,0.632 -4.828,0.446 -7.4,-0.935 1.593,-0.813 2.853,-2.068 3.581,-3.836 -3.448,1.899 -7.55,2.123 -11.29,-0.689 1.456,-0.483 2.719,-1.325 3.672,-2.587 -3.519,0.494 -7.075,-0.577 -9.638,-3.99 1.437,-0.055 2.797,-0.467 4.006,-1.298 -3.036,-0.626 -5.708,-2.486 -7.204,-5.94 1.586,0.316 3.182,0.173 4.707,-0.547 -2.869,-0.7 -5.373,-2.543 -6.806,-5.84 1.539,0.305 3.086,0.18 4.568,-0.486 -2.722,-1.125 -4.915,-3.32 -5.835,-6.787 1.57,0.566 3.223,0.65 4.89,0.111 -0.007,-0.019 -0.014,-0.037 -0.021,-0.055 -2.965,-1.426 -5.197,-4.052 -5.662,-8.003 0.963,0.512 1.991,0.821 3.068,0.896 -3.69,-10.194 -7.12,-18.173 -17.334,-18.173 -1.787,0 -3.693,0.426 -5.372,0.995 1.004,2.573 -0.147,5.258 -2.59,7.181 -3.793,2.985 -7.57,0.322 -10.868,4.683 -2.064,-4.012 -1.92,-10.35 2.808,-14.07 2.695,-2.121 5.364,-2.649 7.676,-1.261 6.525,-4.138 16.078,-4.29 22.907,0.612 l -6.584,-27.182 c -0.309,-1.279 0.088,-1.939 1.278,-1.939 h 16.636 c 1.587,0 2.633,0.343 3.041,1.939 0.97,3.79 3.812,16.109 3.988,16.35 1.565,-9.542 3.636,-18.289 7.272,-18.289 l 16.328,0.022 c 1.983,0 3.041,0.925 1.653,3.701 -1.505,3.009 -2.67,6.305 -3.53,9.632 2.147,0.823 3.885,2.392 5.148,4.366 -0.02,-1.687 -0.589,-3.186 -1.569,-4.474 4.417,-0.197 7.569,2.025 9.399,5.236 0.058,-1.647 -0.422,-3.144 -1.306,-4.462 4.114,0.061 7.008,2.15 8.709,5.109 0.036,-1.522 -0.398,-2.924 -1.186,-4.182 3.424,0.157 5.959,1.694 7.641,3.943 l -4.104,-16.996 c -0.229,-0.914 -0.048,-1.895 1.341,-1.895 h 17.17 c 1.657,0 2.098,0.418 2.462,1.905 l 4.952,20.262 c 0.882,-10.753 5.113,-22.167 8.814,-22.167 l 15.865,0.022 c 1.984,0 3.041,0.925 1.653,3.701 -3.658,7.317 -5.354,16.321 -5.354,23.38 0,7.15 1.512,12.6 4.032,15.49 2.247,2.578 4.826,2.358 6.412,2.358 h 12.648 c 12.473,0 17.269,2.079 18.905,6.32 1.923,0.515 3.009,1.783 3.347,3.331 0.481,2.204 -0.93,3.648 -3.173,3.648 h -11.491 c -3.869,0.131 -6.189,1.806 -6.189,3.646 0,0 1.951,-0.676 4.681,-0.676 h 15.338 c 2.312,0 3.605,2.293 4.264,4.921 1.952,0.859 3.316,2.806 3.316,5.075 0,2.234 -1.323,4.155 -3.227,5.034" /></g><g
           transform="translate(178.4146,34.3636)"
           id="g24"><path
             id="path26"
             style="fill:#1c75bc;fill-opacity:1;fill-rule:nonzero;stroke:none"
             d="m 0,0 c 0.648,0.299 1.354,0.449 2.119,0.449 0.997,0 1.945,-0.217 2.842,-0.649 0.897,-0.432 1.678,-0.964 2.343,-1.595 l 4.488,4.637 C 10.562,4.005 9.057,4.877 7.279,5.459 5.501,6.04 3.681,6.331 1.82,6.331 0.624,6.331 -0.582,6.174 -1.795,5.858 -3.008,5.542 -4.113,5.052 -5.11,4.387 -6.107,3.722 -6.922,2.867 -7.554,1.82 -8.185,0.772 -8.5,-0.499 -8.5,-1.995 c 0,-1.163 0.215,-2.16 0.648,-2.991 0.431,-0.831 0.988,-1.529 1.669,-2.094 0.682,-0.566 1.454,-1.014 2.319,-1.346 0.864,-0.333 1.728,-0.598 2.593,-0.798 1.695,-0.399 2.941,-0.781 3.739,-1.147 0.798,-0.366 1.197,-0.931 1.197,-1.695 0,-0.798 -0.324,-1.355 -0.973,-1.67 -0.648,-0.316 -1.304,-0.474 -1.969,-0.474 -1.197,0 -2.327,0.266 -3.39,0.798 -1.064,0.531 -1.962,1.196 -2.692,1.995 l -4.587,-4.837 c 1.296,-1.264 2.916,-2.219 4.861,-2.867 1.944,-0.648 3.93,-0.972 5.958,-0.972 1.262,0 2.525,0.149 3.789,0.448 1.263,0.3 2.401,0.781 3.415,1.446 1.014,0.665 1.837,1.537 2.468,2.618 0.631,1.08 0.948,2.401 0.948,3.964 0,1.197 -0.233,2.226 -0.699,3.091 -0.465,0.864 -1.08,1.595 -1.844,2.194 -0.765,0.598 -1.621,1.079 -2.568,1.446 -0.947,0.365 -1.887,0.648 -2.817,0.847 -1.595,0.366 -2.751,0.698 -3.465,0.997 -0.715,0.299 -1.072,0.798 -1.072,1.496 0,0.731 0.324,1.247 0.972,1.546" /></g><g
           transform="translate(212.4673,25.2147)"
           id="g28"><path
             id="path30"
             style="fill:#1c75bc;fill-opacity:1;fill-rule:nonzero;stroke:none"
             d="m 0,0 c -0.249,-0.782 -0.616,-1.471 -1.097,-2.069 -0.482,-0.598 -1.089,-1.081 -1.82,-1.446 -0.731,-0.366 -1.579,-0.549 -2.542,-0.549 -0.932,0 -1.763,0.183 -2.494,0.549 -0.731,0.365 -1.354,0.848 -1.869,1.446 -0.516,0.598 -0.914,1.279 -1.196,2.044 -0.283,0.764 -0.424,1.545 -0.424,2.343 0,0.798 0.141,1.578 0.424,2.344 0.282,0.764 0.68,1.445 1.196,2.044 0.515,0.598 1.138,1.079 1.869,1.445 0.731,0.366 1.562,0.549 2.494,0.549 0.963,0 1.811,-0.183 2.542,-0.549 0.731,-0.366 1.338,-0.839 1.82,-1.42 C -0.616,6.149 -0.249,5.476 0,4.711 0.249,3.946 0.374,3.166 0.374,2.368 0.374,1.57 0.249,0.78 0,0 m 5.135,11.492 c -1.014,1.197 -2.252,2.144 -3.714,2.842 -1.463,0.698 -3.091,1.047 -4.886,1.047 -1.828,0 -3.415,-0.374 -4.762,-1.122 -1.346,-0.748 -2.401,-1.62 -3.166,-2.617 h -0.149 v 3.041 h -7.778 v -36.796 h 8.177 v 14.709 h 0.1 c 0.764,-1.064 1.827,-1.903 3.19,-2.518 1.363,-0.615 2.809,-0.922 4.338,-0.922 1.861,0 3.523,0.366 4.986,1.096 1.462,0.731 2.7,1.704 3.715,2.917 1.013,1.213 1.786,2.618 2.318,4.213 0.531,1.596 0.798,3.257 0.798,4.986 0,1.728 -0.275,3.382 -0.823,4.961 -0.548,1.578 -1.33,2.966 -2.344,4.163" /></g><path
           id="path32"
           style="fill:#1c75bc;fill-opacity:1;fill-rule:nonzero;stroke:none"
           d="m 223.76,15.068 h 8.177 v 24.83 h -8.177 z" /><g
           transform="translate(231.1641,51.0164)"
           id="g34"><path
             id="path36"
             style="fill:#1c75bc;fill-opacity:1;fill-rule:nonzero;stroke:none"
             d="m 0,0 c -0.415,0.398 -0.914,0.714 -1.496,0.947 -0.582,0.232 -1.188,0.349 -1.819,0.349 -0.666,0 -1.28,-0.125 -1.845,-0.374 -0.566,-0.249 -1.065,-0.573 -1.496,-0.972 -0.432,-0.399 -0.765,-0.872 -0.997,-1.421 -0.233,-0.549 -0.349,-1.122 -0.349,-1.72 0,-1.23 0.449,-2.286 1.346,-3.166 0.897,-0.881 2.011,-1.322 3.341,-1.322 0.631,0 1.237,0.117 1.819,0.349 0.582,0.233 1.081,0.549 1.496,0.948 0.416,0.399 0.748,0.873 0.997,1.421 0.25,0.548 0.374,1.138 0.374,1.77 0,0.631 -0.124,1.221 -0.374,1.77 C 0.748,-0.872 0.416,-0.399 0,0" /></g><g
           transform="translate(267.0865,53.7083)"
           id="g38"><path
             id="path40"
             style="fill:#1c75bc;fill-opacity:1;fill-rule:nonzero;stroke:none"
             d="m 0,0 c -2.061,0 -3.781,-0.308 -5.16,-0.922 -1.38,-0.616 -2.477,-1.446 -3.291,-2.493 -0.815,-1.047 -1.388,-2.261 -1.72,-3.64 -0.332,-1.38 -0.498,-2.834 -0.498,-4.362 v -2.394 h -8.477 v 2.494 c 0,0.564 0.051,1.129 0.15,1.694 0.1,0.565 0.283,1.073 0.549,1.521 0.265,0.449 0.631,0.806 1.097,1.072 0.465,0.266 1.079,0.399 1.845,0.399 0.398,0 0.797,-0.034 1.196,-0.099 0.399,-0.067 0.747,-0.15 1.047,-0.25 l 0.548,6.481 c -0.565,0.166 -1.188,0.291 -1.869,0.375 -0.682,0.082 -1.372,0.124 -2.069,0.124 -2.061,0 -3.782,-0.308 -5.161,-0.922 -1.379,-0.616 -2.476,-1.446 -3.291,-2.493 -0.815,-1.047 -1.388,-2.261 -1.719,-3.64 -0.333,-1.38 -0.499,-2.834 -0.499,-4.362 v -2.394 h -4.537 v -6.082 h 4.537 V -38.64 h 8.176 v 18.747 h 8.477 V -38.64 h 8.176 v 18.747 h 5.535 v 6.082 h -5.535 v 2.494 c 0,0.564 0.05,1.129 0.15,1.694 0.099,0.565 0.282,1.073 0.548,1.521 0.266,0.449 0.631,0.806 1.097,1.072 0.465,0.266 1.08,0.399 1.845,0.399 0.399,0 0.797,-0.034 1.197,-0.099 0.399,-0.067 0.747,-0.15 1.047,-0.25 l 0.548,6.481 C 3.374,-0.333 2.75,-0.208 2.069,-0.124 1.388,-0.042 0.698,0 0,0" /></g><path
           id="path42"
           style="fill:#1c75bc;fill-opacity:1;fill-rule:nonzero;stroke:none"
           d="m 273.668,15.068 h 8.326 v 37.693 h -8.326 z" /><g
           transform="translate(304.3301,39.8978)"
           id="g44"><path
             id="path46"
             style="fill:#1c75bc;fill-opacity:1;fill-rule:nonzero;stroke:none"
             d="m 0,0 -4.935,-15.955 h -0.15 L -10.62,0 h -9.074 l 10.371,-24.431 -0.798,-2.044 c -0.399,-1.064 -0.881,-1.886 -1.446,-2.468 -0.565,-0.581 -1.479,-0.872 -2.742,-0.872 -0.399,0 -0.84,0.042 -1.321,0.124 -0.483,0.084 -0.923,0.192 -1.322,0.324 l -0.897,-6.88 c 0.599,-0.166 1.304,-0.299 2.119,-0.399 0.814,-0.1 1.603,-0.15 2.368,-0.15 1.562,0 2.917,0.184 4.064,0.549 1.147,0.366 2.144,0.906 2.991,1.621 0.848,0.714 1.579,1.578 2.194,2.592 0.614,1.014 1.172,2.169 1.67,3.465 L 8.676,0 Z" /></g></g></g></g></svg>