<?xml version="1.0" encoding="UTF-8" standalone="no"?>
<svg
   xmlns:dc="http://purl.org/dc/elements/1.1/"
   xmlns:cc="http://creativecommons.org/ns#"
   xmlns:rdf="http://www.w3.org/1999/02/22-rdf-syntax-ns#"
   xmlns:svg="http://www.w3.org/2000/svg"
   xmlns="http://www.w3.org/2000/svg"
   viewBox="0 0 161.19733 147.05733"
   height="147.05733"
   width="161.19733"
   xml:space="preserve"
   id="svg2"
   version="1.1"><metadata
     id="metadata8"><rdf:RDF><cc:Work
         rdf:about=""><dc:format>image/svg+xml</dc:format><dc:type
           rdf:resource="http://purl.org/dc/dcmitype/StillImage" /></cc:Work></rdf:RDF></metadata><defs
     id="defs6"><clipPath
       id="clipPath18"
       clipPathUnits="userSpaceOnUse"><path
         id="path16"
         d="M 0,110.293 H 120.898 V 0 H 0 Z" /></clipPath></defs><g
     transform="matrix(1.3333333,0,0,-1.3333333,0,147.05733)"
     id="g10"><g
       id="g12"><g
         clip-path="url(#clipPath18)"
         id="g14"><g
           transform="translate(78.792,61.9458)"
           id="g20"><path
             id="path22"
             style="fill:#1c75bc;fill-opacity:1;fill-rule:nonzero;stroke:none"
             d="m 0,0 c 1.169,0 2.2,-0.589 2.813,-1.487 -0.362,0.239 -0.794,0.379 -1.261,0.379 -1.27,0 -2.3,-1.029 -2.3,-2.299 0,-1.27 1.03,-2.299 2.3,-2.299 0.467,0 0.899,0.14 1.261,0.378 C 2.2,-6.225 1.169,-6.814 0,-6.814 c -1.882,0 -3.407,1.525 -3.407,3.407 C -3.407,-1.525 -1.882,0 0,0 m 10.848,-8.421 c 0.826,0 1.496,-0.669 1.496,-1.496 0,-0.826 -0.67,-1.495 -1.496,-1.495 -0.827,0 -1.496,0.669 -1.496,1.495 0,0.827 0.669,1.496 1.496,1.496 M 32.67,14.6 c -3.847,9.094 -10.265,16.82 -18.346,22.28 -8.079,5.461 -17.844,8.654 -28.321,8.653 -6.983,0 -13.654,-1.418 -19.715,-3.982 -9.095,-3.847 -16.82,-10.264 -22.281,-18.346 -2.458,-3.637 -4.451,-7.617 -5.906,-11.848 2.214,-0.808 4.706,-1.315 7.437,-1.26 0.123,0 0.241,0.003 0.361,0.004 0.188,0.496 0.382,0.988 0.588,1.475 3.252,7.691 8.696,14.247 15.541,18.871 6.85,4.625 15.081,7.321 23.975,7.322 5.932,-10e-4 11.563,-1.2 16.692,-3.369 7.691,-3.252 14.246,-8.694 18.871,-15.541 4.624,-6.849 7.321,-15.08 7.322,-23.974 0,-5.931 -1.2,-11.563 -3.368,-16.692 -3.253,-7.691 -8.696,-14.246 -15.541,-18.871 -6.85,-4.624 -15.082,-7.32 -23.976,-7.321 -4.086,0 -8.029,0.571 -11.764,1.634 0,0 8.935,13.101 11.484,18.669 0.536,1.171 1.364,1.249 2.179,1.246 0.03,0.013 0.059,0.025 0.083,0.025 h 7.95 c 7.839,0 10.853,1.307 11.882,3.972 1.209,0.324 1.891,1.121 2.104,2.094 0.302,1.385 -0.584,2.293 -1.994,2.293 H 0.704 c -2.432,0.082 -3.89,1.135 -3.89,2.291 0,0 1.226,-0.425 2.942,-0.425 h 9.641 c 1.453,0 2.266,1.442 2.68,3.093 1.227,0.54 2.084,1.764 2.084,3.19 0,1.405 -0.832,2.612 -2.028,3.164 -1.068,5.729 -4.947,11.878 -12.212,14.213 0.57,0.463 1.226,0.773 1.944,0.941 -1.584,1.432 -3.378,1.874 -5.11,1.629 0.436,0.673 1.028,1.194 1.729,1.577 -2.03,1.017 -3.989,0.89 -5.66,0.06 -0.106,6.024 -4.445,12.227 -10.572,12.227 -0.577,0 -1.083,-0.123 -1.45,-0.321 4.027,-2.309 5.138,-6.321 4.59,-10.068 -1.051,0.986 -2.456,1.613 -4.218,1.649 0.481,-0.727 0.765,-1.539 0.803,-2.422 -1.302,1.264 -3.079,1.976 -5.271,1.681 0.535,-0.587 0.925,-1.267 1.12,-2.039 -1.64,1.191 -3.717,1.643 -6.013,0.774 0.575,-0.396 1.05,-0.89 1.407,-1.481 -1.575,0.623 -3.365,0.631 -5.2,-0.31 5.818,-1.722 9.107,-5.662 9.911,-8.282 0.145,-1.169 -0.286,-2.262 -0.827,-2.839 -1.286,6.311 -7.566,9.791 -14.048,9.791 -8.393,0 -11.607,-2.188 -17.423,-2.188 -5.402,0 -13.739,2.188 -18.476,8.254 -0.914,-1.274 -1.012,-4.013 0.748,-6.398 3.74,-5.069 14.874,-8.975 25.449,-7.993 0.689,-2.886 -13.111,-2.635 -20.261,1.819 -0.377,-2.07 0.578,-3.43 1.631,-4.579 2.157,-2.356 10.036,-5.332 19.883,-2.697 0.565,-1.945 -5.645,-3.889 -13.611,-2.133 -0.326,-1.771 1.505,-3.262 2.634,-3.701 3.272,-1.272 8.469,-1.568 13.173,0.628 0.502,-1.318 -1.808,-2.867 -5.742,-3.199 1.441,-2.493 4.69,-3.325 8.941,-3.325 2.266,0 4.286,0.275 6.077,0.755 0.037,-1.612 -3.024,-2.67 -7.538,-2.748 -4.031,-0.07 -8.782,1.509 -10.223,5.248 -5.843,0 -10.898,2.586 -9.926,7.037 -0.911,0.201 -1.967,0.569 -3.018,1.088 -0.007,-0.336 -0.02,-0.672 -0.02,-1.01 0,-6.983 1.418,-13.655 3.983,-19.716 3.847,-9.093 10.265,-16.819 18.346,-22.28 8.079,-5.461 17.843,-8.654 28.32,-8.652 6.983,-0.001 13.654,1.417 19.716,3.982 9.094,3.847 16.82,10.264 22.281,18.345 5.46,8.079 8.653,17.844 8.651,28.321 C 36.652,1.868 35.234,8.539 32.67,14.6" /></g></g></g></g></svg>